<?xml version="1.0" encoding="UTF-8" standalone="no"?>
<svg
   width="4667"
   height="4667"
   version="1.1"
   id="svg8"
   sodipodi:docname="logo.svg"
   inkscape:version="1.4 (e7c3feb1, 2024-10-09)"
   xmlns:inkscape="http://www.inkscape.org/namespaces/inkscape"
   xmlns:sodipodi="http://sodipodi.sourceforge.net/DTD/sodipodi-0.dtd"
   xmlns="http://www.w3.org/2000/svg"
   xmlns:svg="http://www.w3.org/2000/svg">
  <defs
     id="defs8" />
  <sodipodi:namedview
     id="namedview8"
     pagecolor="#ffffff"
     bordercolor="#000000"
     borderopacity="0.25"
     inkscape:showpageshadow="2"
     inkscape:pageopacity="0.0"
     inkscape:pagecheckerboard="0"
     inkscape:deskcolor="#d1d1d1"
     inkscape:zoom="0.20977073"
     inkscape:cx="2292.9796"
     inkscape:cy="2142.8156"
     inkscape:window-width="1200"
     inkscape:window-height="1128"
     inkscape:window-x="0"
     inkscape:window-y="25"
     inkscape:window-maximized="0"
     inkscape:current-layer="svg8" />
  <path
     d="m 1190.2046,350.81553 c 380.3819,-127.07611 661.4408,-172.73726 1060.5771,-193.43401 75.1605,-8.61548 159.9788,-1.93336 235.665,2.4323 q 122.648,7.00286 244.6457,21.41841 121.9977,14.41557 242.8907,36.19927 120.9017,21.78372 240.2622,50.84647 119.3605,29.07169 236.7342,65.31551 l 2.2807,125.46347 c 60.5311,22.59448 119.1912,50.70394 178.9739,75.30303 208.6247,85.81625 366.4476,123.78851 594.4682,126.22079 l -0.5792,853.94813 c 0.08,176.5863 8.1345,356.5402 -0.4455,532.672 -13.2039,270.8217 -74.4744,545.154 -170.0465,798.5578 -294.8686,781.7724 -919.7092,1351.7661 -1670.4586,1690.8881 l -61.6271,28.359 C 1925.7368,4399.0842 1533.6566,4151.1241 1234.0304,3839.5325 943.00179,3536.8682 732.83575,3218.2824 587.09427,2823.7612 q -27.33432,-72.8529 -50.19608,-147.2383 -22.86177,-74.3855 -41.16186,-150.0181 -18.3001,-75.6326 -31.96725,-152.2365 -13.66718,-76.6039 -22.65685,-153.9026 c -26.88886,-247.8264 -19.04851,-499.1365 -18.31791,-748.032 0.77512,-264.4961 -4.10729,-529.11712 1.00676,-793.57755 260.7274,-14.1661 534.64977,-95.85725 767.11632,-212.35777 -1.6929,-38.62266 -1.3988,-76.96021 -0.7128,-115.58285 z m 1015.3971,-5.71099 c -278.1812,11.3596 -563.8017,52.67293 -828.0216,142.47171 l -2.6194,105.75569 c -89.0503,35.18357 -175.4011,76.44343 -264.1219,112.29524 Q 948.96225,770.40811 779.83333,812.79947 c -55.76452,14.09481 -115.13737,29.07168 -172.36305,34.86285 q 3.25197,388.40938 2.12046,776.82768 c -0.0891,172.8619 -4.83786,346.116 11.05668,518.4878 q 2.36102,23.8685 5.16752,47.6925 2.79756,23.824 6.05844,47.5946 3.25197,23.7616 6.9494,47.4609 3.69746,23.6992 7.84036,47.3272 4.14292,23.6279 8.7313,47.1757 4.58839,23.5479 9.61335,46.9976 5.02496,23.4586 10.49539,46.8106 5.47042,23.3607 11.37742,46.6055 5.90698,23.2538 12.24164,46.3829 6.34355,23.1379 13.12368,46.1511 6.77121,23.0043 13.979,45.8838 7.20777,22.8885 14.8343,45.6255 7.63543,22.7372 15.69853,45.3317 8.06309,22.5942 16.54492,45.0285 8.48184,22.443 17.38244,44.7167 8.90949,22.2737 18.22881,44.3782 9.31933,22.0955 19.0574,44.0218 9.72916,21.9262 19.87709,43.6654 10.13899,21.7303 20.69675,43.2734 10.54883,21.5433 21.4986,42.8903 10.95868,21.3382 22.30938,42.4716 11.35069,21.1244 23.10231,42.044 11.74272,20.9105 23.88635,41.5982 12.13472,20.6969 24.66149,41.153 12.52674,20.4563 25.42771,40.6808 12.9098,20.2157 26.1939,40.1907 13.284,19.9663 26.9423,39.6917 13.6582,19.7169 27.6818,39.1751 14.0235,19.4672 28.4124,38.6583 14.3888,19.191 29.1429,38.1149 14.7452,18.9148 29.8379,37.5535 15.1016,18.6386 30.5507,36.9923 c 75.9534,91.0994 161.6093,176.3722 246.4812,259.0701 186.3687,181.5755 624.9117,478.1814 868.1051,560.4962 27.5304,-8.0452 52.3166,-19.8058 78.0829,-32.1899 121.187,-61.2262 240.0306,-123.4678 354.6868,-196.5435 548.522,-349.6262 968.7026,-855.5251 1172.2666,-1476.196 122.7728,-374.3413 116.0106,-691.8579 116.3935,-1078.2447 l -0.2494,-734.5343 C 3894.3959,819.21431 3751.55,787.03321 3610.4682,733.27334 3495.7674,689.56337 3384.3008,635.33127 3270.3663,589.12664 l -1.1761,-109.56003 C 2945.4548,382.88971 2543.1199,324.70181 2205.6017,345.10454 Z"
     id="path2"
     style="stroke-width:8.90949" />
  <path
     d="m 1876.9573,1871.7194 c -56.8695,0.8909 -107.1547,-12.7582 -153.8225,-45.955 -112.1171,-79.7579 -176.0961,-250.4726 -195.5545,-381.2641 -26.2206,-176.1852 1.8354,-380.3462 110.5669,-526.08776 53.5905,-71.83719 119.9396,-111.51116 208.3574,-124.46556 56.1744,-0.79295 106.9762,18.43374 150.8644,53.33223 115.5829,91.90139 180.5953,257.07459 195.8663,400.25909 19.0396,178.6175 -12.3665,373.6908 -129.1343,515.6635 -49.0912,59.6938 -108.7224,101.2296 -187.1437,108.5176 z"
     id="path4"
     style="stroke-width:8.90949" />
  <path
     d="m 2803.0812,1855.9674 c -58.09,2.3522 -112.028,-14.0859 -159.6136,-47.1667 -104.9716,-72.9778 -158.8385,-213.5072 -180.1856,-334.6762 -31.4326,-178.4928 -5.2656,-384.3823 101.889,-534.57858 53.1005,-74.42101 117.9973,-126.33662 209.8274,-141.41148 57.7514,-4.72202 113.1505,14.99468 159.1235,49.26949 110.1482,82.1099 167.4273,226.95157 186.4935,358.85667 25.401,175.6595 -6.7088,381.9855 -116.7499,525.8471 -51.2119,66.9549 -116.5362,112.1617 -200.7843,123.8597 z"
     id="path5"
     style="stroke-width:8.90949" />
  <path
     d="m 1469.7488,2621.9344 c -69.3515,5.7823 -130.1854,-9.3372 -188.1774,-47.8172 -114.7008,-76.1049 -187.919,-209.4087 -214.398,-342.0711 -23.8062,-119.3249 -21.5788,-257.5734 49.3051,-361.6809 38.3287,-56.299 90.8591,-89.0413 157.1812,-101.2206 57.9119,-3.751 112.6695,11.6802 162.527,40.7609 117.543,68.5494 201.6753,211.5291 233.9365,340.7346 28.0295,112.2774 28.8403,252.3703 -33.4907,353.9473 -39.0058,63.5604 -94.7881,100.4369 -166.8837,117.347 z"
     id="path6"
     style="stroke-width:8.90949" />
  <path
     d="m 3236.2696,2628.6166 c -53.4302,3.7062 -97.9421,-2.5215 -142.8281,-34.9343 -71.8017,-51.8354 -103.5371,-141.4737 -116.3046,-225.7486 -24.2159,-159.8898 15.1819,-314.612 112.3132,-444.0847 60.1835,-80.2034 142.5251,-139.5228 242.9708,-154.3481 53.5905,-1.9511 101.6661,8.9807 144.8684,42.0885 64.6472,49.5455 96.0353,128.6887 107.2613,207.0654 22.7815,159.0076 -16.5005,334.1684 -114.7365,462.4116 -59.952,78.261 -134.3729,134.4264 -233.5445,147.5502 z"
     id="path7"
     style="stroke-width:8.90949" />
  <path
     d="m 1334.2711,2861.1454 c 165.1731,-118.1934 322.8978,-252.9939 435.7276,-423.9761 50.3119,-76.2386 89.1127,-158.9097 143.4519,-232.7695 92.124,-125.2051 206.7001,-227.8335 364.5139,-252.299 l 6.3525,-0.7038 c 115.4492,-11.6713 248.2986,33.0542 336.8233,107.5911 38.1595,32.1365 95.4564,160.068 127.5751,211.4401 q 47.4164,74.813 100.1427,145.982 c 129.0183,176.6574 292.3295,314.8882 461.7345,451.2479 -41.5539,64.683 -87.2953,128.867 -137.4913,187.1172 -205.5242,238.4628 -480.8632,364.3092 -792.2322,387.0907 -109.5422,2.9047 -218.2646,-5.8712 -324.9112,-31.8691 -317.472,-77.3789 -554.7497,-273.4146 -721.6868,-548.8515 z"
     id="path8"
     style="stroke-width:8.90949" />
</svg>
